<?xml version="1.0" encoding="utf-8"?>
<!-- Generator: Adobe Illustrator 21.0.2, SVG Export Plug-In . SVG Version: 6.00 Build 0)  -->
<svg version="1.1" id="Layer_1" xmlns="http://www.w3.org/2000/svg" xmlns:xlink="http://www.w3.org/1999/xlink" x="0px" y="0px"
	 viewBox="0 0 520.9 536.8" style="enable-background:new 0 0 520.9 536.8;" xml:space="preserve">
<style type="text/css">
	.st0{fill:#C40022;}
	.st1{fill:#231F20;}
</style>
<path class="st0" d="M270.6,145.5c-10.2,21.5-6.2,39.2,9.1,39.5c15.2,0.3,35.9-17,46.1-38.5s6.2-39.2-9.1-39.5
	C301.5,106.8,280.9,124,270.6,145.5z M394.8,67.8c0.1,0,0.2,0.2,0.2,0.3v0.1c-9.1,25.8-24.2,55.2-39.2,77.4
	c-31.5,46.8-76.8,76.4-101.1,66c-24.3-10.4-18.4-56.8,13.1-103.7c7.1-10.5,14.9-20.1,23-28.7c0.1-0.1,0.1-0.2,0.1-0.2
	c0-0.2-0.2-0.4-0.4-0.4h-0.1c-9.9,1.4-20,3.3-30.1,5.9c-0.1,0-0.1,0.1-0.2,0.1C153.6,215.4,108.3,385.1,114.5,536.5
	c0,0.2-0.1,0.3-0.4,0.3H114C51.2,511.5,5.3,450.8,0.5,374l-0.1-0.9c-7.9-136.7,101-276.7,243.4-312.8
	C299.1,46.4,351.2,50.1,394.8,67.8L394.8,67.8z"/>
<path class="st1" d="M354.5,436.5c-10.4,7.2-21.2,13.8-32.3,19.8H322c-0.2,0-0.4-0.2-0.4-0.4c-2.1-32.8-9.2-64.6-21.4-91.1
	c-32.6-70.6-89.6-76.1-127.2-12.1c-23,39.1-33.5,95.2-30.7,149c0,0.2,0.1,0.3,0.2,0.3c39.9,12.5,85.9,13.9,135,1.5
	c142.2-36.2,250.9-176.1,243-312.7c-7-120-101.6-197.5-220.9-190.3c-0.1,0-0.2,0-0.2,0.1c-11.6,11.7-22.5,23.6-32.6,35.5
	c0,0.1-0.1,0.1-0.1,0.2c0,0.2,0.2,0.4,0.4,0.4h0.1c69.9-8.9,125.9,5.4,162.5,34.5c0.1,0,0.1,0.2,0.1,0.3v0.2
	c-126,177.6-110.4,278.8-75.2,364.2v0.1C354.7,436.3,354.6,436.4,354.5,436.5L354.5,436.5z"/>
<path class="st1" d="M462.1,457.1c-1.3,14.9,9.5,26.8,24.4,26.8c15.2,0,28.7-12.4,30.1-27.6c1.3-14.9-9.5-26.8-24.4-26.8
	C477,429.5,463.4,441.9,462.1,457.1z M457.8,456.7c1.6-17.4,16.9-31.5,34.3-31.5s30.2,14.1,28.7,31.5c-1.6,17.4-16.9,31.5-34.3,31.5
	S456.2,474.1,457.8,456.7L457.8,456.7z M482.4,438.1c0-0.1,0.1-0.1,0.1-0.1h8c2,0,3.4,0,4.4,0.1c1.4,0.1,2.4,0.3,3.5,0.7
	c4,1.3,6.3,4.5,6.3,8.6c0,0.7-0.1,1.4-0.2,2.2c-0.9,4.9-4.1,9-9.9,10.6l5.1,14.9v0.1l-0.1,0.1h-5.1c-0.1,0-0.1,0-0.1-0.1l-4.8-14.3
	l-3.2,0.1h-3.6l-2.6,14.1c0,0.1-0.1,0.1-0.2,0.1h-4.3c0,0-0.1,0-0.1-0.1V475l2.7-14.3v-0.2l2.1-11.2L482.4,438.1L482.4,438.1z
	 M489.6,442.5h-3.5l-1.3,7l-1.3,6.9h3.8c1.7,0,2.9-0.1,3.8-0.1c1-0.1,1.8-0.2,2.6-0.5c3.3-0.9,5.6-3.3,6.2-6.4
	c0.6-3-0.8-5.4-3.7-6.3c-0.7-0.3-1.4-0.4-2.4-0.5c-0.9-0.1-2.1-0.1-3.8-0.1H489.6L489.6,442.5z"/>
</svg>
